<?xml version="1.0" encoding="utf-8"?>
<!-- Generator: Adobe Illustrator 19.1.0, SVG Export Plug-In . SVG Version: 6.00 Build 0)  -->
<svg version="1.1" baseProfile="tiny" id="icons" xmlns="http://www.w3.org/2000/svg" xmlns:xlink="http://www.w3.org/1999/xlink"
	 x="0px" y="0px" width="8px" height="8px" viewBox="0 0 8 8" xml:space="preserve">
<g id="icn_x5F_smiley_x5F_line_x5F_dark">
</g>
<path fill="#007FAF" d="M7.823,6.764l-1.92-1.92c0.075-0.123,0.14-0.251,0.198-0.385c0.022-0.05,0.037-0.103,0.056-0.155
	c0.042-0.112,0.078-0.227,0.107-0.345c0.021-0.082,0.039-0.164,0.053-0.249c0.014-0.087,0.02-0.177,0.027-0.267
	C6.35,3.357,6.369,3.275,6.369,3.187c0-1.758-1.426-3.184-3.185-3.184C1.426,0.003,0,1.429,0,3.187c0,1.759,1.426,3.185,3.184,3.185
	c0.141,0,0.275-0.023,0.411-0.042c0.02-0.002,0.04-0.003,0.06-0.006c0.116-0.018,0.228-0.04,0.339-0.069
	c0.072-0.019,0.142-0.042,0.211-0.066C4.332,6.146,4.454,6.098,4.573,6.04C4.648,6.004,4.726,5.97,4.798,5.928l1.931,1.931
	c0.189,0.189,0.495,0.189,0.684,0L7.891,7.38C8.08,7.191,8.012,6.953,7.823,6.764z M3.185,5.435c-1.242,0-2.249-1.006-2.249-2.249
	c0-1.242,1.007-2.248,2.249-2.248s2.249,1.006,2.249,2.248C5.433,4.429,4.426,5.435,3.185,5.435z"/>
</svg>
